<svg xmlns="http://www.w3.org/2000/svg" width="24" height="24" viewBox="0 0 24 24" fill="none" stroke="currentColor" stroke-width="1.75" stroke-linecap="round" stroke-linejoin="round"><circle cx="12" cy="12" r="3"/><path d="M19.4 15a1.8 1.8 0 0 0 .36 2l.05.05a2.1 2.1 0 0 1-3 3l-.05-.05a1.8 1.8 0 0 0-2-.36 1.8 1.8 0 0 0-1.1 1.65V21a2.1 2.1 0 0 1-4.2 0v-.08a1.8 1.8 0 0 0-1.1-1.65 1.8 1.8 0 0 0-2 .36l-.05.05a2.1 2.1 0 0 1-3-3l.05-.05a1.8 1.8 0 0 0 .36-2A1.8 1.8 0 0 0 2 13.1H2a2.1 2.1 0 0 1 0-4.2h.08a1.8 1.8 0 0 0 1.65-1.1 1.8 1.8 0 0 0-.36-2l-.05-.05a2.1 2.1 0 0 1 3-3l.05.05a1.8 1.8 0 0 0 2 .36H8.4A1.8 1.8 0 0 0 9.5 1.5V1a2.1 2.1 0 0 1 4.2 0v.08a1.8 1.8 0 0 0 1.1 1.65 1.8 1.8 0 0 0 2-.36l.05-.05a2.1 2.1 0 0 1 3 3l-.05.05a1.8 1.8 0 0 0-.36 2v.05A1.8 1.8 0 0 0 21.1 8.5H22a2.1 2.1 0 0 1 0 4.2h-.08A1.8 1.8 0 0 0 19.4 15z"/></svg>